<mxfile host="65bd71144e">
    <diagram id="pscnl707mMJPjPyVH2jF" name="Page-1">
        <mxGraphModel dx="729" dy="739" grid="1" gridSize="10" guides="1" tooltips="1" connect="1" arrows="1" fold="1" page="1" pageScale="1" pageWidth="827" pageHeight="1169" math="0" shadow="0">
            <root>
                <mxCell id="0"/>
                <mxCell id="1" parent="0"/>
                <mxCell id="4" value="Product" style="swimlane;childLayout=stackLayout;horizontal=1;startSize=30;horizontalStack=0;rounded=1;fontSize=14;fontStyle=0;strokeWidth=2;resizeParent=0;resizeLast=1;shadow=0;dashed=0;align=center;" vertex="1" parent="1">
                    <mxGeometry x="140" y="110" width="160" height="180" as="geometry"/>
                </mxCell>
                <mxCell id="5" value="- _id - ObjectId&#10;- name - String&#10;- description - String&#10;- price - Number&#10;- category - String&#10;- brand - String&#10;- rating - Number&#10;- gender - String[]&#10;- fabricType - String" style="align=left;strokeColor=none;fillColor=none;spacingLeft=4;fontSize=12;verticalAlign=top;resizable=0;rotatable=0;part=1;" vertex="1" parent="4">
                    <mxGeometry y="30" width="160" height="150" as="geometry"/>
                </mxCell>
                <mxCell id="8" value="ProductVariant" style="swimlane;childLayout=stackLayout;horizontal=1;startSize=30;horizontalStack=0;rounded=1;fontSize=14;fontStyle=0;strokeWidth=2;resizeParent=0;resizeLast=1;shadow=0;dashed=0;align=center;" vertex="1" parent="1">
                    <mxGeometry x="334" y="110" width="206" height="180" as="geometry"/>
                </mxCell>
                <mxCell id="9" value="- _id - ObjectId&#10;- productId - ObjectId #ref to Product&#10;- color - String&#10;- size - String" style="align=left;strokeColor=none;fillColor=none;spacingLeft=4;fontSize=12;verticalAlign=top;resizable=0;rotatable=0;part=1;" vertex="1" parent="8">
                    <mxGeometry y="30" width="206" height="150" as="geometry"/>
                </mxCell>
            </root>
        </mxGraphModel>
    </diagram>
</mxfile>